<svg width="71" height="90" viewBox="0 0 71 90" fill="none" xmlns="http://www.w3.org/2000/svg">
<path d="M2.09237 53.9853C1.29379 53.9853 0.682763 51.9889 1.17885 43.6734C2.19451 26.6487 5.91585 13.8751 7.32546 10.4509C7.91664 9.01478 8.33578 8.22454 9.43987 10.9076C12.9919 19.5396 14.5913 30.3487 15.5956 33.4069C18.0444 40.8642 18.2212 18.0978 19.2254 17.9859C22.412 17.6308 21.6514 24.3291 22.1535 26.5434C22.3881 27.5775 22.8553 28.3583 23.4603 27.0727C28.4353 16.5008 32.1115 5.03024 35.7596 1.05249C36.7621 -0.0406517 37.3809 16.1437 38.482 31.6131C39.751 49.4425 48.8635 8.62383 51.48 6.80888C52.6027 6.03015 53.6973 6.1918 54.511 6.89056C59.6555 11.3084 57.9503 27.6807 58.2528 39.2934C58.4329 46.2075 62.772 21.9697 66.2083 16.6852C67.019 16.664 67.8175 18.0615 68.4286 21.3768C69.0396 24.6921 69.4389 29.8829 69.8503 35.2309" stroke="#33ADFF" stroke-width="2" stroke-linecap="round"/>
<path d="M27.4761 88.6216C27.4761 88.4687 27.7819 87.7017 28.4365 86.8884C28.9404 86.2624 29.5615 88.0771 29.9438 88.3123C32.4293 89.8412 33.6489 85.614 35.3091 84.8389C35.7032 84.6549 36.1189 84.8354 36.3923 85.0278C36.9287 85.405 37.1292 86.1469 37.4756 86.4574C38.5501 87.4205 40.058 84.0708 41.2977 83.524C42.4139 83.0316 42.7644 85.7577 43.6148 86.7285C45.2501 88.5955 47.0094 83.5286 48.5178 82.9841C49.9187 82.4784 50.6449 84.9884 51.2219 85.4136C52.7207 86.5181 54.7346 83.7603 56.3948 83.1775C56.8 83.0353 57.2047 83.2135 57.5163 83.4058C59.1828 84.4342 59.6052 86.995 59.9134 87.5372C60.1012 87.8676 60.6085 86.6938 61.1855 86.1539C61.8386 85.5428 63.0763 85.6094 64.1178 85.7623C64.5476 85.9152 64.777 86.2211 64.9717 86.5316C65.1663 86.8421 65.3192 87.1479 65.7085 88.3899" stroke="#33ADFF" stroke-width="2" stroke-linecap="round"/>
</svg>
