<svg width="96" height="161" viewBox="0 0 96 161" fill="none" xmlns="http://www.w3.org/2000/svg">
<path d="M66.467 66.2659C68.6728 71.56 70.8787 76.8541 73.118 83.9931C75.3573 91.1321 77.5632 99.9556 78.9201 110.457C80.2771 120.958 80.7182 132.87 81.1728 145.142" stroke="#33ADFF" stroke-width="3" stroke-linecap="round"/>
<path d="M70.0673 146.061C70.876 146.87 73.1122 149.308 76.4419 152.944C80.6384 157.527 82.0466 158.583 82.3182 158.823C83.6141 159.968 84.3542 153.972 88.9399 148.125C90.0763 146.612 90.9585 145.457 92.1818 143.928C92.7311 143.208 93.1355 142.602 93.5521 141.977" stroke="#33ADFF" stroke-width="3" stroke-linecap="round"/>
<path d="M15.5849 36.0418C14.5791 35.7032 10.302 36.1502 7.18484 37.0544C5.96862 37.4072 4.86684 37.9586 3.79673 38.5207C2.69966 39.097 2.04257 40.5492 1.59048 42.1255C1.36921 42.8971 1.5854 43.7019 1.92235 44.3284C3.19428 46.6933 6.42798 46.9867 9.53332 47.554C11.2632 47.8699 12.7572 48.0061 13.9949 48.5665C17.1993 50.0175 17.0512 52.5168 17.1087 53.5869C17.2341 55.9174 12.7741 56.8074 9.95324 57.3187C7.93155 57.3763 6.22141 57.2645 5.09542 57.0393C4.5282 56.9259 3.96944 56.8141 2.37782 56.3603" stroke="#33ADFF" stroke-width="3" stroke-linecap="round"/>
<path d="M25.4056 35.0259C23.9427 35.2494 22.1411 36.1502 21.0067 37.7282C19.6487 39.6173 19.4252 42.5776 19.647 44.838C19.8746 47.1566 21.5587 49.1269 23.4229 50.4866C25.514 51.1655 29.1036 51.6193 32.3952 50.6644C32.9641 50.3799 33.4111 50.1564 34.549 49.9261" stroke="#33ADFF" stroke-width="3" stroke-linecap="round"/>
<path d="M33.8715 30.9622C34.5454 32.0831 35.673 34.5653 36.5772 36.5413C37.7449 39.0931 38.3822 40.9995 39.2863 42.8078C39.5132 43.2616 39.7367 43.7086 39.6284 43.7154C37.7875 43.8305 38.0503 40.0039 37.6541 37.1271C37.3553 34.9575 38.0435 33.2243 38.9443 32.2676C40.7527 30.4 41.9955 29.4992 42.8387 28.6543C43.3467 28.2564 44.0172 27.9212 45.3853 27.5757" stroke="#33ADFF" stroke-width="3" stroke-linecap="round"/>
<path d="M56.8992 23.1735C58.8024 23.1735 63.0964 23.6205 65.8631 24.8616C68.0192 25.8288 68.5214 28.4698 69.0327 31.0621C69.5103 33.4831 68.1963 35.9199 66.6182 37.4421C64.7333 39.2604 62.331 40.2139 59.9554 40.6135C57.3434 41.0529 55.5514 37.1797 54.3645 35.092C52.5029 31.8177 51.9347 29.5061 51.6503 27.3015C51.5226 26.3119 52.6052 25.5473 53.5619 24.9276C54.6303 24.4197 55.7648 24.0776 56.9466 23.9083C57.5697 23.8507 58.2402 23.8507 58.9311 23.8507" stroke="#33ADFF" stroke-width="3" stroke-linecap="round"/>
<path d="M69.7675 4.54816C70.5532 5.22205 72.1312 7.46725 75.2298 17.2083C76.7884 22.108 78.3352 25.8555 80.5397 28.9219C81.4981 30.0479 82.6291 31.2941 83.8686 32.4776C84.4375 32.9907 84.8845 33.3259 85.0064 33.3327" stroke="#33ADFF" stroke-width="3" stroke-linecap="round"/>
<path d="M77.5563 1.50031C78.0033 3.522 79.5814 7.79904 80.6007 10.41C81.7168 13.2687 82.6292 16.7256 84.0972 21.404C86.1307 25.4287 87.5971 26.3295 88.723 27.1185C89.2903 27.4606 89.849 27.6841 91.102 27.9144" stroke="#33ADFF" stroke-width="3" stroke-linecap="round"/>
</svg>
